<svg xmlns="http://www.w3.org/2000/svg" viewBox="0 0 303.22 331.7"><defs><style>.cls-1{fill:#fff;}</style></defs><g id="Camada_2" data-name="Camada 2"><g id="Layer_1" data-name="Layer 1"><path class="cls-1" d="M157.84,74q13.53,12.38,13.55,31.46a127.44,127.44,0,0,1-2.68,27.45H240a166.71,166.71,0,0,0,4.7-41.18q0-39.15-26.78-64.92Q191.12,0,151,0q-28.8,0-49,14.05T72,54.21V6.69H0v325H72V115.8Q72,91,86,76.31t37.49-14.72Q144.25,61.59,157.84,74Z"/><path class="cls-1" d="M204,201.76c-25.58,13.67-66.92,21.77-99.25,30.7,66.17,18.27,81,33.08,99.25,99.24,18.27-66.16,33.08-81,99.24-99.24C270.89,223.53,229.55,215.43,204,201.76Z"/><path class="cls-1" d="M204,133.22c-36.26,33.83-26.77,54.23,0,68.54C230.74,187.45,240.23,167.05,204,133.22Z"/></g></g></svg>