<?xml version="1.0" encoding="UTF-8"?>
<svg id="Layer_1" data-name="Layer 1" xmlns="http://www.w3.org/2000/svg" viewBox="0 0 300 81">
  <defs>
    <style>
      .cls-1 {
        fill: #5c5d5f;
        stroke-width: 0px;
      }
    </style>
  </defs>
  <g id="grid">
    <path class="cls-1" d="m32.13,58.48V22.27h12.45c3.96,0,7.05.97,9.28,2.9,2.19,1.84,3.42,4.59,3.34,7.45,0,1.56-.41,3.09-1.18,4.45-.76,1.38-1.94,2.47-3.38,3.11,1.77.54,3.33,1.62,4.45,3.1,1.13,1.47,1.73,3.27,1.72,5.12,0,3.34-1.1,5.86-3.3,7.56-2.2,1.7-5.61,2.54-10.23,2.52h-13.14Zm16.4-21.99c.91-.9,1.39-2.15,1.3-3.43.1-1.27-.38-2.51-1.3-3.4-.87-.78-2.26-1.17-4.19-1.17h-4.83v9.16h4.83c1.93-.01,3.33-.4,4.19-1.16Zm-2.67,7.38h-6.35v8.44h6.37c1.44.12,2.88-.25,4.08-1.07.89-.81,1.36-1.99,1.25-3.19.08-1.19-.38-2.35-1.25-3.16-1.2-.82-2.64-1.19-4.08-1.06l-.02.04Z"/>
    <path class="cls-1" d="m64.26,58.6V22.39h7.4v29.9h14.42v6.31h-21.82Z"/>
    <path class="cls-1" d="m128.65,33.16c-.62-1.44-1.43-2.79-2.41-4.02-1.64.56-3.12,1.51-4.33,2.75-.47.47-.9.98-1.29,1.53,1.43,2.09,2.16,4.58,2.08,7.11.08,2.53-.65,5.02-2.08,7.11-.38.55-.81,1.06-1.28,1.53-1.21,1.24-2.7,2.18-4.34,2.75-1.27.43-2.61.65-3.96.63-3.12.07-6.12-1.15-8.3-3.38-2.3-2.29-3.55-5.43-3.43-8.68-.11-3.21,1.1-6.32,3.36-8.61,2.18-2.23,5.19-3.45,8.3-3.38,1.34-.01,2.68.2,3.96.63.5-.63,1.05-1.23,1.64-1.78,1.19-1.11,2.53-2.05,3.97-2.8-5.3-2.7-11.5-3.04-17.07-.94-2.24.84-4.3,2.12-6.06,3.74-1.74,1.63-3.12,3.6-4.05,5.79-1.98,4.69-1.98,9.98,0,14.67.94,2.19,2.32,4.16,4.05,5.8,1.76,1.62,3.82,2.89,6.06,3.73,5.56,2.14,11.78,1.8,17.07-.94,1.44-.75,2.78-1.69,3.97-2.79.59-.55,1.14-1.15,1.64-1.78,1-1.22,1.84-2.57,2.48-4.01,1.98-4.69,1.98-9.98,0-14.67Z"/>
    <path class="cls-1" d="m149.26,40.49c.02,2.52-.49,5.02-1.49,7.33-.92,2.19-2.28,4.16-4,5.8-1.77,1.62-3.83,2.89-6.07,3.73-4.83,1.81-10.15,1.81-14.97,0-.72-.28-1.42-.59-2.1-.94,1.44-.75,2.78-1.69,3.97-2.79.59-.55,1.14-1.15,1.64-1.78,1.28.43,2.62.64,3.97.63,3.12.07,6.12-1.15,8.3-3.38,2.26-2.28,3.47-5.4,3.36-8.61.09-3.22-1.16-6.33-3.44-8.61-2.17-2.22-5.16-3.45-8.27-3.4-1.35,0-2.69.2-3.97.63-1.64.56-3.12,1.51-4.33,2.75-.47.47-.9.98-1.29,1.53-1.42,2.09-2.15,4.58-2.07,7.11-.07,2.53.65,5.02,2.07,7.11-.38.55-.81,1.06-1.28,1.53-1.21,1.24-2.7,2.18-4.34,2.75-.97-1.23-1.78-2.58-2.4-4.02-1.98-4.69-1.98-9.98,0-14.67.62-1.44,1.43-2.79,2.4-4.02.5-.63,1.05-1.23,1.64-1.78,1.19-1.11,2.53-2.05,3.97-2.8.68-.35,1.38-.67,2.1-.94,4.83-1.81,10.15-1.81,14.97,0,2.26.83,4.33,2.08,6.12,3.7,1.74,1.62,3.12,3.6,4.05,5.79.99,2.32,1.48,4.82,1.45,7.33Z"/>
    <path class="cls-1" d="m181.29,35.02c.09,2.9-.93,5.72-2.85,7.89-2.07,2.24-4.81,3.76-7.81,4.34l11.46,11.24h-9.47l-10.59-10.93v10.93h-7.43V22.39h12.45c4.33,0,7.79,1.19,10.37,3.56,2.55,2.31,3.96,5.63,3.87,9.07Zm-19.26-6.45v13.2h3.82c2.56,0,4.52-.55,5.87-1.66,1.41-1.24,2.16-3.06,2.03-4.93.12-1.82-.56-3.61-1.86-4.89-1.39-1.2-3.18-1.81-5.01-1.72h-4.85Z"/>
    <path class="cls-1" d="m187.52,22.39h7.45v36.21h-7.45V22.39Z"/>
    <path class="cls-1" d="m200.05,58.48V22.39h5.48l17.21,22.63v-22.63h7.44v36.09h-5.51l-17.18-22.69v22.69h-7.44Z"/>
    <path class="cls-1" d="m266.13,24.62l-2.28,5.71c-2.75-1.26-5.75-1.88-8.77-1.83-3.19-.11-6.29,1.05-8.61,3.24-2.3,2.27-3.53,5.42-3.39,8.65-.04,2.26.58,4.48,1.78,6.39,1.13,1.8,2.75,3.24,4.66,4.16,3.42,1.53,7.25,1.84,10.87.89v-5.96h-7.38v-6.1h14.86v16.46c-3.87,1.59-8.03,2.35-12.21,2.25-3.59.06-7.14-.72-10.37-2.27-6.09-2.9-9.92-9.1-9.78-15.84-.03-3.24.83-6.43,2.5-9.21,1.68-2.78,4.1-5.03,7-6.49,3.16-1.62,6.67-2.44,10.22-2.4,3.77-.1,7.51.7,10.91,2.35Z"/>
  </g>
</svg>