<?xml version="1.0" encoding="UTF-8"?>
<svg id="Layer_1" data-name="Layer 1" xmlns="http://www.w3.org/2000/svg" viewBox="0 0 300 81">
  <defs>
    <style>
      .cls-1 {
        fill: #5c5d5f;
        stroke-width: 0px;
      }
    </style>
  </defs>
  <path class="cls-1" d="m87.46,55.63c-1.98.84-4.31,1.26-6.99,1.26-2.28,0-4.38-.4-6.28-1.19-1.91-.79-3.54-1.91-4.91-3.35-1.36-1.44-2.43-3.17-3.2-5.21-.77-2.03-1.15-4.29-1.15-6.77s.38-4.66,1.15-6.69c.77-2.03,1.83-3.77,3.2-5.21,1.36-1.44,3-2.54,4.91-3.31,1.91-.77,4-1.15,6.28-1.15,2.58,0,4.85.42,6.8,1.26.61.26,1.19.56,1.74.88,2.17,1.27,4.91.97,6.68-.82h0c2.55-2.57,1.91-6.86-1.27-8.6-.91-.5-1.85-.95-2.84-1.35-3.25-1.34-6.95-2.01-11.12-2.01-3.92,0-7.55.68-10.89,2.04-3.35,1.36-6.26,3.26-8.74,5.69-2.48,2.43-4.41,5.29-5.8,8.59-1.39,3.3-2.08,6.85-2.08,10.67s.69,7.37,2.08,10.67c1.39,3.3,3.33,6.18,5.84,8.66,2.5,2.48,5.43,4.4,8.77,5.76,3.35,1.36,6.98,2.04,10.89,2.04,4.26,0,8.02-.67,11.27-2.01,1-.41,1.96-.87,2.89-1.37,3.2-1.74,3.85-6.05,1.27-8.63h-.01c-1.76-1.77-4.47-2.09-6.62-.83-.6.35-1.23.67-1.88.95Z"/>
  <path class="cls-1" d="m159.15,39.31c.64-.37,1.61-.56,2.9-.56s2.71.27,4.13.82c.42.16.84.36,1.23.6,1.81,1.06,4.12.69,5.59-.8l.1-.1c2.09-2.11,1.64-5.64-.93-7.13-.65-.37-1.33-.71-2.05-1-2.6-1.07-5.44-1.6-8.51-1.6s-5.48.5-7.66,1.49c-2.18.99-3.87,2.34-5.06,4.05-1.19,1.71-1.78,3.73-1.78,6.06,0,2.18.42,3.98,1.26,5.39.84,1.41,1.93,2.52,3.27,3.31,1.34.79,2.75,1.41,4.24,1.86,1.49.45,2.9.86,4.24,1.23,1.34.37,2.44.79,3.31,1.26.87.47,1.3,1.15,1.3,2.04,0,.69-.36,1.24-1.08,1.64-.72.4-1.75.59-3.09.59-1.93,0-3.72-.36-5.35-1.08-.55-.24-1.07-.51-1.56-.81-1.79-1.09-4.11-.75-5.59.75h0c-2.07,2.1-1.65,5.62.89,7.1.02.01.04.02.05.03,1.76,1.02,3.67,1.8,5.73,2.34,2.06.54,4.15.82,6.28.82,4.51,0,8.09-1.04,10.74-3.12,2.65-2.08,3.98-4.88,3.98-8.4,0-2.28-.42-4.13-1.26-5.54-.84-1.41-1.93-2.54-3.27-3.38-1.34-.84-2.75-1.51-4.24-2.01-1.49-.49-2.9-.92-4.24-1.26-1.34-.35-2.43-.74-3.27-1.19-.84-.45-1.26-1.04-1.26-1.78,0-.69.32-1.23.97-1.6Z"/>
  <path class="cls-1" d="m193.58,15.63h-1.71c-2.67,0-4.83,2.16-4.83,4.83v10.11h-3.35c-2.67,0-4.83,2.16-4.83,4.83h0c0,2.67,2.16,4.83,4.83,4.83h3.35v21.64c0,2.67,2.16,4.83,4.83,4.83h1.71c2.67,0,4.83-2.16,4.83-4.83v-21.64h3.35c2.67,0,4.83-2.16,4.83-4.83h0c0-2.67-2.16-4.83-4.83-4.83h-3.35v-10.11c0-2.67-2.16-4.83-4.83-4.83Z"/>
  <path class="cls-1" d="m235.89,31.52v.04c0,.77-.86,1.22-1.49.78-.59-.41-1.22-.78-1.9-1.1-1.96-.94-4.15-1.41-6.58-1.41-3.32,0-6.28.82-8.89,2.45s-4.66,3.87-6.17,6.69c-1.51,2.83-2.27,6.05-2.27,9.67s.76,6.84,2.27,9.67c1.51,2.83,3.57,5.06,6.17,6.69,2.6,1.64,5.56,2.45,8.89,2.45,2.43,0,4.63-.47,6.62-1.41.66-.32,1.29-.67,1.86-1.07.63-.43,1.48.02,1.48.79h0c0,.53.43.95.95.95h9.25c.53,0,.95-.43.95-.95V31.52c0-.53-.43-.95-.95-.95h-9.25c-.53,0-.95.43-.95.95Zm-7.66,25.67c-1.54,0-2.93-.37-4.16-1.12-1.24-.74-2.21-1.76-2.9-3.05-.69-1.29-1.04-2.75-1.04-4.39s.36-3.17,1.08-4.46c.72-1.29,1.68-2.29,2.9-3.01,1.21-.72,2.61-1.08,4.2-1.08s2.99.36,4.2,1.08c1.21.72,2.16,1.72,2.83,3.01.67,1.29,1,2.78,1,4.46,0,2.48-.74,4.52-2.23,6.13-1.49,1.61-3.45,2.42-5.87,2.42Z"/>
  <path class="cls-1" d="m127.54,31.08c-1.7-.52-3.5-.8-5.37-.8-10.18,0-18.44,8.26-18.44,18.44s8.26,18.44,18.44,18.44c1.93,0,3.79-.3,5.54-.85-1.42-.45-2.64-.93-3.66-1.37h0c-.75-.33-1.38-.63-1.91-.91-1-.52-1.71-.97-2.13-1.25-.84-.57-1-.77-1.1-1.1-.1-.37,0-.76.26-1.03.27-.27.66-.38,1.03-.28.21.05.39.17.52.32.32.25,2.53,1.91,6.98,3.41.94.32,1.98.63,3.12.92,1.34-.71,2.58-1.59,3.7-2.59-.79-.26-1.56-.53-2.29-.83-2.15-.85-4.03-1.82-5.43-2.61-1.34-.76-2.38-1.44-3.02-1.87-1.39-.95-1.42-1.05-1.51-1.39-.1-.37,0-.76.26-1.03.27-.27.66-.38,1.02-.28.19.05.35.15.48.28.39.3,4.46,3.33,9.94,5.32.71.26,1.45.5,2.2.71,1.07-1.25,1.98-2.64,2.69-4.15-.67-.22-1.34-.46-1.99-.72-2.5-.98-4.8-2.17-6.54-3.14-1.55-.87-2.79-1.66-3.56-2.16-1.65-1.09-1.67-1.15-1.78-1.53-.1-.37,0-.76.26-1.03.27-.27.66-.38,1.02-.28.17.05.33.13.45.25.41.3,5.29,3.74,10.93,5.95.65.26,1.32.5,1.99.71.33-.97.58-1.98.74-3.02.15-.93.22-1.89.22-2.86,0-8.31-5.5-15.34-13.07-17.64Zm6.17,6.1c2.99,2.99,4.68,6.93,4.78,11.14-.23-.33-.47-.67-.72-1.02-.17-.23-.35-.46-.54-.69-1.02-1.28-2.27-2.58-3.76-3.72-5.34-4.1-9.69-2.11-11.55-.75-.72.52-1.39.97-1.95,1.31-.43.27-.8.48-1.06.63-.05.03-.1.06-.14.08-.01,0-.03.01-.04.02,0,0,0,0,0,0-.16.09-.25.13-.25.13-.35.14-.74.21-1.15.17-1.1-.11-1.98-1-2.1-2.09-.08-.72.18-1.39.63-1.87l.05-.04,6.66-5.38,1.21-.98c1.18-.95,2.78-1.21,4.19-.67,2.13.81,4.09,2.07,5.74,3.73Zm-17.35,2.94l4.57-3.69-4.57,3.69-.13.1.13-.1Z"/>
</svg>