<?xml version="1.0" encoding="UTF-8"?>
<svg id="Layer_1" data-name="Layer 1" xmlns="http://www.w3.org/2000/svg" viewBox="0 0 300 81">
  <defs>
    <style>
      .cls-1 {
        fill: #5c5d5f;
        stroke-width: 0px;
      }
    </style>
  </defs>
  <path class="cls-1" d="m49.03,21.46v3.6h-9.04v34.47h0c-4.49,0-8.13-3.65-8.13-8.14v-26.3h-9.07v-3.63h26.25Z"/>
  <path class="cls-1" d="m129.28,21.46v3.6h-18.11v9.07h14.5v3.6h-14.5v21.79h0c-4.5,0-8.14-3.65-8.14-8.14h0v-29.93h26.25Z"/>
  <path class="cls-1" d="m166.27,21.46v3.6h-18.13v9.07h14.5v3.6h-14.5v21.79h0c-4.5,0-8.14-3.65-8.14-8.14h0v-29.93h26.27Z"/>
  <path class="cls-1" d="m203.26,21.46v3.6h-18.12v9.07h14.5c0,1.99-1.61,3.6-3.6,3.6h-10.9v18.15h18.12c0,2.01-1.62,3.64-3.63,3.65,0,0,0,0,0,0h-22.61V21.46h26.25Z"/>
  <path class="cls-1" d="m240.23,21.46v3.6h-18.11v9.07h14.5c0,1.99-1.61,3.6-3.6,3.6h-10.9v18.15h18.11c.01,2.01-1.61,3.64-3.61,3.65,0,0-.01,0-.02,0h-22.62V21.46h26.25Z"/>
  <path class="cls-1" d="m259.11,59.54h0c-4.5,0-8.14-3.65-8.14-8.14v-29.93h13.58c7.01,0,12.68,5.69,12.68,12.69h0c.02,5.11-3.04,9.71-7.74,11.67l6.82,13.71h0c-2.47,0-4.74-1.39-5.84-3.6l-4.58-9.16c-.45.06-.9.08-1.36.08h-5.4v12.68Zm0-16.31h5.43c5,0,9.06-4.04,9.07-9.04,0-5.01-4.05-9.07-9.05-9.07,0,0-.01,0-.02,0h-5.43v18.12Z"/>
  <path class="cls-1" d="m73.31,59.54c-10.49-.04-18.99-8.54-19.01-19.04-.03-10.49,8.46-19.01,18.94-19.04.02,0,.03,0,.05,0,5.05-.08,9.91,1.94,13.43,5.57,3.63,3.51,5.65,8.37,5.57,13.43.08,5.07-1.94,9.94-5.57,13.47-3.5,3.64-8.36,5.66-13.41,5.6Zm-5.31-4.57c5.65,2.06,11.98.66,16.23-3.58,2.94-2.86,4.56-6.81,4.49-10.91.06-4.09-1.57-8.03-4.5-10.88-4.39-4.38-10.98-5.69-16.72-3.33-1,.38-1.9.96-2.67,1.71-2.43,2.51-2.36,6.52.15,8.96.08.08.16.15.24.22,4.48,3.9,13.22,2.84,12.73-1.4.76-.09,2.68,2.71,2.41,6.57-.14,1.3-.53,2.56-1.16,3.71-2.08,3.45-5.91,5.13-9.72,5.35s-7.43-.63-8.3-1.18c1.05,1.25,2.27,2.33,3.64,3.22,1,.63,2.07,1.14,3.19,1.53v.03Z"/>
</svg>