<?xml version="1.0" encoding="UTF-8"?>
<svg id="Layer_1" data-name="Layer 1" xmlns="http://www.w3.org/2000/svg" viewBox="0 0 300 81">
  <defs>
    <style>
      .cls-1 {
        fill: #5c5d5f;
        stroke-width: 0px;
      }
    </style>
  </defs>
  <rect class="cls-1" x="57.26" y="9.95" width="4.84" height="4.84" transform="translate(8.73 45.83) rotate(-45)"/>
  <rect class="cls-1" x="55.26" y="30.43" width="1.88" height="11.31"/>
  <path class="cls-1" d="m83.7,33l-16.34-16.36-7.67,7.67-7.69-7.67-16.32,16.36,24,24.08,24.02-24.08Zm-21.01-6.72h5.54v17.28l-2.35,2.34h-1.81v-15.47h-1.38v-4.15Zm-8.81,19.62l-2.78-2.77v-14.08l2.78-2.77h4.65l2.77,2.77v14.08l-2.77,2.77h-4.65Z"/>
  <polygon class="cls-1" points="64.11 18.13 64.11 18.12 64.11 13.7 62.03 15.79 62.03 17.26 59.69 19.6 57.35 17.26 57.35 15.79 55.27 13.7 55.27 18.12 55.27 18.13 59.69 22.55 64.11 18.13"/>
  <polygon class="cls-1" points="55.26 70.57 56.74 72.05 59.69 69.1 62.64 72.05 64.12 70.58 59.69 66.15 55.26 70.57"/>
  <polygon class="cls-1" points="82.67 49.06 67.06 64.68 68.53 66.15 84.76 49.93 84.76 45.51 82.67 47.59 82.67 49.06"/>
  <polygon class="cls-1" points="36.7 49.06 36.7 47.59 34.62 45.5 34.62 49.93 50.84 66.15 52.32 64.67 36.7 49.06"/>
  <polygon class="cls-1" points="39.65 56.44 37.57 54.36 37.57 58.78 47.89 69.1 49.37 67.63 39.65 57.91 39.65 56.44"/>
  <polygon class="cls-1" points="79.72 57.91 70.01 67.63 71.48 69.1 81.8 58.78 81.81 58.78 81.81 54.37 79.72 56.45 79.72 57.91"/>
  <path class="cls-1" d="m31.69,32.25v8.84l23.6,23.6-3,2.95,1.47,1.47,5.9-5.9,5.9,5.91,1.48-1.48-3-2.95,23.66-23.61v-8.84l-28.01,28.01-28-28Zm25.05,31l-23-23v-2.97l24.47,24.45-1.47,1.52Zm28.87-25.97v2.93l-22.97,23.04-1.48-1.47,24.45-24.5Z"/>
  <path class="cls-1" d="m125,48.59h-11.9l11.47-15.92c.38-.47.57-1.07.56-1.67v-3.35c0-.77-.24-1.24-1.24-1.24h-17.21c-.99,0-1.25.47-1.25,1.24v3.48c0,.77.25,1.24,1.25,1.24h10.49l-11.57,16c-.36.47-.55,1.04-.55,1.63v3.35c0,1.02.17,1.24,1.28,1.24h18.67c.99,0,1.24-.47,1.24-1.24v-3.52c0-.77-.24-1.24-1.24-1.24Z"/>
  <path class="cls-1" d="m151.37,48.59h-13.65v-5.65h11.47c.99,0,1.24-.47,1.24-1.24v-3.34c0-.77-.24-1.24-1.24-1.24h-11.47v-4.67h12.93c.98,0,1.24-.47,1.24-1.24v-3.56c0-.77-.24-1.24-1.24-1.24h-18.46c-.98,0-1.24.47-1.24,1.24v25.7c0,.77.24,1.24,1.24,1.24h19.18c.99,0,1.25-.47,1.25-1.24v-3.52c0-.77-.26-1.24-1.25-1.24Z"/>
  <path class="cls-1" d="m174.85,44.44c1.05-.43,2.02-1.04,2.86-1.8,3.87-3.55,4.14-9.56.6-13.44-1.79-1.8-3.85-2.74-8.52-2.74h-10.79c-.98,0-1.2.47-1.2,1.24v25.65c0,.98.43,1.24,1.2,1.24h4.19c.77,0,1.24-.24,1.24-1.24v-20.9h5.7c.11,0,.22-.01.33-.01,2,.01,3.62,1.65,3.61,3.65,0,2.01-1.97,3.47-4.07,3.47h-.86c-.98,0-1.24.47-1.24,1.24v3.43c-.11.76.06,1.53.47,2.18l4.63,6.89c.41.85,1.29,1.36,2.23,1.29h5c.77,0,1.03-.77.62-1.37l-6-8.78Z"/>
  <path class="cls-1" d="m196.93,25.77c-5.1,0-11.44,2.91-11.44,9.68v10.1c0,6.77,6.35,9.68,11.44,9.68s11.51-2.91,11.51-9.68v-10.1c0-6.77-6.41-9.68-11.51-9.68Zm4.79,19.23c0,2.74-2.03,4.33-4.79,4.33s-4.76-1.59-4.76-4.33v-8.95c0-2.74,1.97-4.33,4.76-4.33s4.79,1.59,4.79,4.33v8.95Z"/>
  <path class="cls-1" d="m234.59,26.41h-4.24c-.77,0-1.24.24-1.24,1.24v17.35c0,2.7-1.79,4.24-4.62,4.24s-4.59-1.54-4.59-4.24v-17.35c0-.98-.47-1.24-1.24-1.24h-4.24c-.77,0-1.24.24-1.24,1.24v18.35c0,6.7,6.22,9.25,11.31,9.25s11.34-2.53,11.34-9.25v-18.35c0-.98-.47-1.24-1.24-1.24Z"/>
  <path class="cls-1" d="m267.14,26.37h-4.11c-1.42,0-1.63.94-1.93,1.46l-5.91,10.53-5.87-10.53c-.37-.52-.54-1.46-2-1.46h-4.23c-.99,0-1.25.47-1.25,1.24v25.74c0,.98.47,1.24,1.25,1.24h4.23c.78,0,1.25-.24,1.25-1.24v-14.52l4.32,7.49c.21.49.67.84,1.2.9h2.14c.54-.06,1.01-.4,1.24-.9l4.28-7.49v14.52c0,.98.47,1.24,1.25,1.24h4.09c.77,0,1.24-.24,1.24-1.24v-25.74c0-.77-.26-1.24-1.19-1.24Z"/>
</svg>