<?xml version="1.0" encoding="UTF-8"?>
<svg id="Layer_1" data-name="Layer 1" xmlns="http://www.w3.org/2000/svg" viewBox="0 0 300 81">
  <defs>
    <style>
      .cls-1 {
        fill: #5c5d5f;
        stroke-width: 0px;
      }
    </style>
  </defs>
  <path class="cls-1" d="m64.72,65.74h0c-1.35.01-2.68-.29-3.89-.89-2.99-1.51-4.12-4.43-5.68-8.46-1.34-3.67-2.1-7.52-2.27-11.42-.22-2.54-.3-5.09-.24-7.64v-1.34c1.51-1.27,3.13-2.88,4.84-4.58,2.13-2.21,4.4-4.28,6.79-6.2-2.66,10.63-2.73,19.28-.23,25.69.06.18.17.43.31.78l.37.89.63-.77c1.32-1.7,3.33-2.73,5.48-2.8.79-.01,1.56.17,2.26.53,1.45.86,2.38,2.38,2.49,4.06.16,1.18.16,2.37,0,3.54v.05c-.28,2.04-1.26,3.92-2.77,5.31-.85.81-1.82,1.5-2.88,2.03-1.63.79-3.41,1.2-5.22,1.21Z"/>
  <path class="cls-1" d="m39.39,65.74c-1.81-.02-3.59-.45-5.22-1.25-1.05-.53-2.02-1.21-2.88-2.03-1.51-1.4-2.49-3.27-2.77-5.31v-.05c-.17-1.18-.17-2.37,0-3.54.11-1.69,1.06-3.22,2.52-4.07.69-.36,1.47-.54,2.25-.53,2.15.07,4.16,1.1,5.48,2.8l.63.77.37-.89c.14-.35.25-.6.31-.78,2.38-6.07,2.2-14.7-.55-25.69,2.7,2.15,5.27,4.46,7.7,6.92,1.51,1.43,2.92,2.8,4.19,3.9v1.42c.07,2.53-.01,5.06-.24,7.58-.14,3.9-.87,7.75-2.18,11.42-1.57,4.04-2.66,6.95-5.69,8.46-1.22.6-2.57.91-3.93.89Z"/>
  <polygon class="cls-1" points="39.51 23.47 52.07 15.25 64.35 23.47 52.06 34.92 39.51 23.47"/>
  <path class="cls-1" d="m104.98,54.02c-7.34,0-12.75-6.47-12.75-13.42,0-7.34,5.78-13.47,12.75-13.47,3.5-.03,6.88,1.29,9.43,3.69l2.04-4.67c-3.2-2.52-7.16-3.89-11.23-3.89-10.07.14-18.19,8.27-18.34,18.34.17,10.05,8.29,18.14,18.34,18.28,4.78,0,9.37-1.86,12.79-5.2l-3.54-3.6c-2.51,2.52-5.93,3.94-9.49,3.93Z"/>
  <path class="cls-1" d="m121.57,58.39h5.25l2.19-5.31h13.77l2.19,5.31h5.39l-14.35-36.27-14.44,36.27Zm9.24-10.02l5.06-12.99,5.1,12.99h-10.16Z"/>
  <path class="cls-1" d="m178.22,34.56c-.09-6.49-5.33-11.73-11.82-11.82h-11.1v35.64h4.92v-11.96h6.27c.41,0,.81-.04,1.21-.1l5.06,12.06h5.5l-5.6-13.81c3.41-2.2,5.5-5.96,5.55-10.02Zm-11.77,7.34h-6.2v-14.63h6.2c4.04,0,6.95,3.6,6.95,7.29.08,3.94-3.02,7.21-6.95,7.34Z"/>
  <rect class="cls-1" x="185.18" y="22.75" width="4.92" height="35.64"/>
  <path class="cls-1" d="m203.61,32.08c.14-2.99,2.65-5.33,5.64-5.25,2.26.16,4.38,1.13,5.98,2.73l3.36-3.54c-2.59-2.31-5.92-3.61-9.39-3.68-5.73,0-10.63,3.4-10.63,9.63,0,9.92,15.71,10.31,15.71,17.32,0,1.41-1.41,4.81-5.7,4.81s-6.37-2.48-8.86-5.93l-4.23,2.92c2.85,4.03,7.48,7.57,12.95,7.57,4.96,0,10.84-3.89,10.84-10.02-.03-8.38-15.69-10.86-15.69-16.56Z"/>
  <path class="cls-1" d="m231.38,32.08c.14-2.99,2.65-5.33,5.64-5.25,2.26.16,4.38,1.13,5.98,2.73l3.36-3.54c-2.59-2.31-5.92-3.61-9.39-3.68-5.73,0-10.63,3.4-10.63,9.63,0,9.92,15.71,10.31,15.71,17.32,0,1.41-1.41,4.81-5.69,4.81s-6.38-2.48-8.86-5.93l-4.23,2.92c2.89,4.03,7.47,7.57,12.91,7.57,4.96,0,10.84-3.89,10.84-10.02,0-8.38-15.66-10.86-15.66-16.56Z"/>
  <polygon class="cls-1" points="258.42 46.67 269.17 46.67 269.65 41.77 258.42 41.77 258.42 27.56 271.6 27.56 271.12 22.75 253.51 22.75 253.51 58.39 271.12 58.39 271.6 53.63 258.42 53.63 258.42 46.67"/>
</svg>