<?xml version="1.0" encoding="UTF-8"?>
<svg id="Layer_1" data-name="Layer 1" xmlns="http://www.w3.org/2000/svg" viewBox="0 0 300 81">
  <defs>
    <style>
      .cls-1 {
        fill: #5c5d5f;
        stroke-width: 0px;
      }
    </style>
  </defs>
  <path class="cls-1" d="m53.81,60.17c-6.99,0-12.36-1.6-15.99-4.76s-5.55-8.24-5.55-14.81,2.04-11.31,6.06-14.55c3.85-3.1,9.54-4.74,16.47-4.74,2.69.01,5.37.25,8.02.7l-.05,5.6c-1.3-.11-2.57-.16-3.83-.16-14.84,0-16.47,9.15-16.47,13.08,0,4.96,2.21,13.29,17,13.29,1.22,0,2.43-.05,3.61-.12l-.11,5.61c-3.02.55-6.09.84-9.16.86Z"/>
  <polygon class="cls-1" points="76.01 59.26 76.01 21.95 102.02 21.95 102.02 25.85 83.56 25.85 83.56 38.93 98.79 38.93 98.79 41.99 83.56 41.99 83.56 55.36 103.43 55.36 103.43 59.26 76.01 59.26"/>
  <path class="cls-1" d="m136.72,59.96c-5.7.15-11.26-1.78-15.65-5.42-4.11-3.65-6.4-8.93-6.24-14.43,0-5.79,2.07-10.67,5.98-14.1,3.91-3.43,9.24-5.19,15.28-5.19,5.7-.13,11.27,1.73,15.75,5.25,4.18,3.45,6.54,8.62,6.41,14.04,0,5.87-2.1,10.87-6.08,14.44s-9.36,5.41-15.45,5.41Zm-.14-32.29c-6.9,0-12.1,5.32-12.1,12.37s5.17,12.58,12.02,12.58,12.09-5.41,12.09-12.58-5.16-12.37-12.02-12.37Z"/>
  <path class="cls-1" d="m192.6,60.17c-6.99,0-12.36-1.6-15.99-4.76s-5.55-8.24-5.55-14.81,2.04-11.31,6.06-14.55c3.85-3.1,9.54-4.74,16.47-4.74,2.69.01,5.37.25,8.02.7v5.6c-1.3-.11-2.57-.16-3.83-.16-14.84,0-16.47,9.15-16.47,13.08,0,7.45,5.05,12.87,12.02,12.87h5.01v-10.4h5.44v15.93c-3.65.9-7.41,1.32-11.17,1.24Z"/>
  <rect class="cls-1" x="216.56" y="21.95" width="7.55" height="37.32"/>
  <path class="cls-1" d="m258.45,60.17c-6.99,0-12.36-1.6-16.02-4.76-3.66-3.16-5.55-8.24-5.55-14.81s2.04-11.31,6.06-14.55c3.85-3.1,9.54-4.74,16.47-4.74,2.69.01,5.37.25,8.02.7v5.6c-1.3-.11-2.57-.16-3.83-.16-14.84,0-16.47,9.15-16.47,13.08,0,4.96,2.21,13.29,17,13.29,1.22,0,2.42-.05,3.61-.12l-.11,5.61c-3.03.55-6.09.84-9.17.86Z"/>
</svg>