<?xml version="1.0" encoding="UTF-8"?>
<svg id="Layer_1" data-name="Layer 1" xmlns="http://www.w3.org/2000/svg" viewBox="0 0 300 81">
  <defs>
    <style>
      .cls-1 {
        fill-rule: evenodd;
      }

      .cls-1, .cls-2 {
        fill: #5c5d5f;
        stroke-width: 0px;
      }
    </style>
  </defs>
  <path class="cls-1" d="m76.53,25.72c-.14-1.05-.55-2.05-1.17-2.91l-4.97,1.37c-.11.03-.23.05-.35.05s-.23-.02-.35-.05l-4.97-1.37c-.62.86-1.02,1.86-1.17,2.91l6.49,2.29,6.49-2.29Z"/>
  <polygon class="cls-1" points="75.47 20.08 74.51 18.12 70.05 16.89 65.54 18.13 64.59 20.07 70.05 21.58 75.47 20.08"/>
  <g>
    <path class="cls-1" d="m91.57,30.19l-9.12-1.33c-.1.14-.22.27-.36.38l.79,5.5c.05.37-.06.75-.3,1.04-.25.28-.61.45-.98.45h-1.85c-.38,0-.74-.16-.98-.45-.25-.28-.36-.66-.3-1.04l.79-5.5c-.43-.36-.72-.87-.78-1.46-.04.02-.08.04-.13.06l-7.85,2.77c-.14.05-.29.07-.43.07s-.29-.02-.43-.07l-7.85-2.77c-.36-.13-.64-.41-.78-.76-.74.92-1.8,1.54-2.99,1.72l-9.51,1.38c-3.87.56-5.41,5.31-2.61,8.04l6.88,6.71c1.11,1.08,1.62,2.64,1.36,4.17l-1.62,9.47c-.66,3.85,3.38,6.79,6.84,4.97l8.51-4.47c1.37-.72,3.01-.72,4.39,0l8.51,4.47c3.46,1.82,7.5-1.12,6.84-4.97l-1.62-9.47c-.26-1.53.24-3.09,1.36-4.17l6.88-6.71c2.8-2.73,1.25-7.48-2.61-8.04Z"/>
    <g>
      <path class="cls-1" d="m109.79,30.39v-2.77h-5.53v25.14h5.58v-12.72c0-2.65.72-4.62,2.16-5.91,1.44-1.29,3.45-1.94,6.03-1.94l2.77.05.25-4.58c-.34-.03-1.11-.05-2.31-.05-4.02,0-7.01.92-8.95,2.77Z"/>
      <rect class="cls-2" x="125.78" y="27.58" width="5.63" height="25.19"/>
      <path class="cls-1" d="m130.99,20.04c-.65-.57-1.48-.85-2.49-.85s-1.79.29-2.44.85c-.65.57-.98,1.31-.98,2.21s.33,1.61.98,2.21c.65.6,1.47.91,2.44.91s1.84-.3,2.49-.91c.65-.6.98-1.34.98-2.21s-.33-1.64-.98-2.21Z"/>
      <path class="cls-1" d="m150.07,37.99l-2.46-.35c-1.81-.27-3.08-.59-3.8-.96-.72-.37-1.08-.92-1.08-1.66,0-1.91,1.81-2.87,5.43-2.87,2.01,0,3.49.2,4.45.6.96.4,1.52,1.17,1.68,2.31h5.48c-.27-2.28-1.43-4.09-3.49-5.43-2.06-1.34-4.77-2.01-8.12-2.01s-5.95.65-7.99,1.96c-2.05,1.31-3.07,3.1-3.07,5.38,0,2.15.89,3.85,2.67,5.1,1.78,1.26,4.11,2.1,6.99,2.54l2.46.35c2.11.34,3.57.68,4.37,1.03.8.35,1.21.93,1.21,1.73-.1,2.01-2.11,3.02-6.03,3.02-2.35,0-4.14-.32-5.38-.96-1.24-.64-1.98-1.69-2.21-3.17h-5.68c.3,2.88,1.67,5.09,4.1,6.61,2.43,1.53,5.47,2.29,9.13,2.29s6.34-.69,8.47-2.06c2.13-1.37,3.19-3.32,3.19-5.83,0-4.12-3.44-6.67-10.31-7.64Z"/>
      <path class="cls-1" d="m185.26,29.26c-2.18-1.06-4.68-1.58-7.49-1.58s-5.36.53-7.54,1.58c-2.18,1.06-3.86,2.55-5.05,4.47-1.19,1.93-1.78,4.18-1.78,6.76s.6,4.84,1.81,6.79c1.21,1.94,2.89,3.44,5.05,4.5,2.16,1.06,4.67,1.58,7.52,1.58,3.42,0,6.44-.82,9.08-2.46,2.63-1.64,4.27-3.97,4.9-6.99h-5.63c-.57,1.61-1.59,2.78-3.07,3.52-1.48.74-3.24,1.11-5.28,1.11-2.71,0-4.83-.62-6.34-1.86-1.51-1.24-2.3-2.87-2.36-4.88h23.03v-1.31c0-2.58-.6-4.83-1.78-6.76-1.19-1.93-2.87-3.42-5.05-4.47Zm-15.89,8.52c.44-1.68,1.4-2.97,2.89-3.9,1.49-.92,3.33-1.38,5.51-1.38s4.01.46,5.51,1.38c1.49.92,2.45,2.22,2.89,3.9h-16.79Z"/>
      <path class="cls-1" d="m253.75,33.71c-1.21-1.94-2.86-3.44-4.95-4.5-2.1-1.06-4.47-1.58-7.11-1.58-4.29,0-7.61,1.29-9.96,3.87v-3.87h-5.53v34.19h5.53v-12.22c1.07,1.17,2.46,2.12,4.15,2.84,1.69.72,3.63,1.08,5.81,1.08,2.65,0,5.03-.54,7.14-1.61,2.11-1.07,3.76-2.6,4.95-4.58,1.19-1.98,1.78-4.26,1.78-6.84s-.6-4.84-1.81-6.79Zm-6.59,12.97c-1.64,1.48-3.82,2.21-6.54,2.21s-4.87-.75-6.56-2.24c-1.69-1.49-2.54-3.53-2.54-6.11s.85-4.62,2.54-6.11c1.69-1.49,3.88-2.24,6.56-2.24s4.89.74,6.54,2.21c1.64,1.48,2.46,3.52,2.46,6.13s-.82,4.66-2.46,6.13Z"/>
      <path class="cls-1" d="m211.13,49.63c-4.01-1.2-6.74-4.92-6.68-9.11v-18.71l-8.35,6.22v12.49c0,7.33,6,13.33,13.33,13.33,5.5,0,10.25-3.38,12.28-8.16-2.25,3.53-6.57,5.14-10.58,3.94Z"/>
      <path class="cls-1" d="m213.82,48.16c2.52,0,4.85-1.25,6.24-3.34.56-1.37.84-2.81.84-4.3v-11.55l-4.61-3.44v14.99c0,3.47-2.59,6.34-5.93,6.79.41.22.85.4,1.31.54.7.21,1.42.32,2.15.32Z"/>
    </g>
  </g>
</svg>