<?xml version="1.0" encoding="UTF-8"?>
<svg id="Layer_1" data-name="Layer 1" xmlns="http://www.w3.org/2000/svg" viewBox="0 0 300 81">
  <defs>
    <style>
      .cls-1 {
        fill: #5c5d5f;
        stroke-width: 0px;
      }
    </style>
  </defs>
  <path class="cls-1" d="m36.57,42.76c-.35-.38-.95-.41-1.34-.05-.02.02-.04.03-.05.05-3.61,2.81-6.96,5.95-10,9.37-.34.36-.5.84-.45,1.33.15,2.66.33,5.3.43,7.96,0,1.01.45,1.18,1.36,1.16h18.92c.62,0,1.14,0,1.18-.87.11-2.8.28-5.59.45-8.39.02-.44-.15-.88-.48-1.18-3.04-3.43-6.4-6.57-10.02-9.38Z"/>
  <path class="cls-1" d="m27.39,35.11c2.68,1.23,5.24,2.71,7.65,4.42.48.44,1.21.44,1.69,0,2.41-1.71,4.96-3.19,7.65-4.43.68-.31.96-.66.7-1.45-1.98-5.69-5.12-10.92-9.21-15.34-3.96,4.6-7.27,9.48-9.12,15.24-.27.85-.15,1.2.65,1.56Z"/>
  <path class="cls-1" d="m15.1,45.02h2.29c1.43.12,2.96.19,4.47.38.78.11,1.12,0,1.17-.91.11-2.64.48-5.27,1.09-7.85.2-.77-.06-1.14-.78-1.42-3.43-1.32-6.96-2.37-10.55-3.15-1.11-.24-1.36-.05-1.28,1.01.2,3.32.58,6.64,1.14,9.92.37,2.01.36,2.01,2.46,2.01Z"/>
  <path class="cls-1" d="m59.32,31.95c-3.73.79-7.39,1.89-10.95,3.29-.62.25-.91.5-.71,1.29.63,2.57,1,5.21,1.08,7.86,0,.8.24,1.12,1.13,1.01,1.5-.2,3.02-.28,4.54-.41v.05c1.08-.06,2.16-.06,3.24,0,.8.07,1.14-.14,1.3-.94.75-3.75,1.19-7.56,1.33-11.38-.01-.76-.2-.92-.95-.76Z"/>
  <path class="cls-1" d="m57.33,46.77c-4.16-.09-8.33.28-12.41,1.09,3.3,3.39,6.04,6.84,8.93,10.36,1.76-3.38,3.17-6.93,4.21-10.6.23-.74-.14-.82-.72-.85Z"/>
  <path class="cls-1" d="m14.52,46.78c-.79,0-1.01.22-.75,1.01.89,3.07,2.04,6.06,3.43,8.94.22.46.27,1.01.92,1.29,2.67-3.57,5.56-6.97,8.65-10.18-4.03-.78-8.14-1.14-12.24-1.06Z"/>
  <path class="cls-1" d="m28.83,45.84l5.46-4.71c-2.33-1.61-4.78-3.05-7.31-4.32-.85-.44-1.08-.23-1.23.57-.46,2.46-.78,4.95-.95,7.44,0,.28-.1.6.14.83,1.25.42,2.6.48,3.88.17Z"/>
  <path class="cls-1" d="m37.48,41.15c1.42,1.07,2.77,2.24,4.02,3.5,1.07,1.37,2.92,1.86,4.53,1.21.68-.2,1.01-.35.91-1.12-.14-2.49-.45-4.97-.93-7.42-.13-.71-.35-.91-1.07-.55-2.6,1.26-5.1,2.73-7.46,4.39Z"/>
  <path class="cls-1" d="m22.91,54.75c-.85,1.01-1.52,1.88-2.17,2.71s-1.08,1.41-1.6,2.12c-.12.15-.19.33-.2.52.1,1.55,2.91,3.13,4.26,2.41.28-.15.27-.36.25-.61-.21-2.27-.33-4.56-.53-7.15Z"/>
  <path class="cls-1" d="m48.82,54.65c-.17,2.66-.29,4.84-.46,7.04-.07.75.22.95.91.89h1.48c1.01-.08,2.38-2.27,1.81-3.02-1.16-1.6-2.31-3.08-3.73-4.91Z"/>
  <path class="cls-1" d="m167.57,49.78c-.27-3.02-2.01-4.92-5.03-6.04,3.31-1.9,4.57-4.51,3.84-7.45-.8-2.97-3.45-5.07-6.53-5.15-3.28-.11-6.58,0-9.87-.08-1.01,0-1.44.32-1.43,1.41v24.26c0,1.01.32,1.34,1.31,1.32,3.48-.06,6.97.09,10.44-.09,4.77-.28,7.68-3.66,7.26-8.18Zm-13.65-11.25c.05-3.26-.45-2.87,2.5-2.89,3.11,0,4.43.93,4.38,3.1s-1.27,3.02-4.67,2.96c-2.64-.02-2.12.39-2.21-3.17Zm3.77,14.96q-3.73.11-3.73-3.74,0-3.53,3.61-3.49c2.45,0,3.76,1.2,3.85,3.43.17,1.93-1.27,3.63-3.2,3.8-.18.02-.36.02-.53,0Z"/>
  <path class="cls-1" d="m88.86,37.66c-.61-4.23-3.43-6.58-7.87-6.61h-9.86c.49.66.7,1.49.6,2.3v22.24c.03.5-.01,1.01-.12,1.5.11-.49.15-1,.12-1.5v-22.24c.1-.82-.12-1.64-.61-2.29h-.37v26.96l.4-.07h0c1.06-.03,2.13,0,3.19.07,1.45.16,1.85-.4,1.8-1.81-.11-2.71,0-5.43,0-8.14,0-.43-.1-1.01.4-1.16.45-.09.91.12,1.15.51.56.68,1.07,1.4,1.54,2.14,1.41,2.39,2.77,4.82,4.14,7.22.27.47.44,1.15,1.13,1.16,1.98.13,3.97.09,5.95-.13-2.43-3.93-4.51-7.81-7.18-11.37,4.83-1.24,6.05-5.7,5.59-8.79Zm-5.66,1.58c-.03,1.65-1.27,3.02-2.91,3.23-3.93.6-4.15.42-4.15-3.51s.41-4.36,4.44-3.35c1.7.32,2.85,1.92,2.63,3.63Z"/>
  <path class="cls-1" d="m232.87,57.72c.15-.28.21-.59.18-.91v-18.56c0-.8-.29-1.17-1.11-1.12-.63.05-1.27.05-1.9,0-1.31-.15-1.77.3-1.73,1.67.1,3.22,0,6.46,0,9.85-1.43-2.58-2.7-5.24-3.82-7.97-1.07-3.02-2.91-4.02-5.97-3.61-1.17.16-1.64.36-1.61,1.62.06,5.87.06,11.75,0,17.61,0,1.32.37,1.87,1.71,1.69.43-.06.87-.06,1.31,0,1.64.26,2.01-.46,2.01-2.01-.12-3.61,0-7.24,0-10.82.28.11.31.51.45.83,1.64,3.61,3.28,7.25,4.92,10.85.45,1.06,4.89,1.72,5.55.87Z"/>
  <path class="cls-1" d="m180.16,58.2c4.56-.85,6.11-2.79,6.13-7.4v-10.06c0-3.7,0-3.65-3.72-3.64-1.24,0-1.64.33-1.64,1.6.06,4.16,0,8.34,0,12.5,0,2.01-1.1,3.02-3.1,3.02s-3.02-.9-3.02-2.95v-10.42c0-3.94,0-3.91-4.02-3.72-1.01.05-1.32.36-1.32,1.34.05,2.4,0,4.8,0,7.21h.06v7.21c0,1.83,1.05,3.49,2.71,4.27,2.45,1.24,5.24,1.61,7.93,1.05Z"/>
  <path class="cls-1" d="m288.47,50.55c-.15-2.63-1.88-4.02-4.11-4.92-1.51-.5-3.04-.92-4.6-1.24-1.08-.27-2.22-.56-2.01-2.01.21-1.45,1.4-1.72,2.57-1.73,1.52-.02,3.03.34,4.38,1.06.82.43,1.38.37,1.85-.5.37-.6.8-1.16,1.27-1.69.53-.69.33-1.14-.4-1.46-3.96-1.72-7.98-2.47-12.07-.41-2.3.98-3.7,3.32-3.48,5.8.02,2.56,1.75,4.79,4.23,5.46,1.45.44,2.94.75,4.39,1.19,1.15.32,2.14.89,2.01,2.33s-1.41,1.64-2.51,1.77c-2.08.23-4.19-.12-6.09-1.01-.9-.41-1.39-.27-1.7.65-.16.54-.38,1.06-.65,1.56-.61,1.01-.29,1.54.81,1.9,2.03.76,4.19,1.13,6.36,1.12,2.27.14,4.52-.39,6.49-1.53,2.3-1.24,3.61-3.76,3.29-6.35Z"/>
  <path class="cls-1" d="m265.36,45.48c-1.49-.49-3.02-.79-4.56-1.24-.85-.25-1.71-.54-1.61-1.75s.87-1.44,1.75-1.69c1.77-.5,3.39.13,4.92.8,1.15.5,1.86.41,2.4-.74.24-.45.52-.88.86-1.27.56-.71.5-1.26-.36-1.62-3.91-1.62-7.88-2.33-11.9-.39-2.27,1-3.7,3.29-3.59,5.77.03,2.63,1.81,4.91,4.36,5.57,1.44.47,2.96.71,4.38,1.19,1.1.35,2.24.93,2.01,2.34s-1.43,1.64-2.6,1.75c-2.08.19-4.18-.15-6.1-1.01-.82-.36-1.4-.41-1.67.65-.15.55-.37,1.08-.67,1.56-.61,1.1-.16,1.57.9,1.93,1.99.75,4.11,1.13,6.25,1.1,2.17.14,4.34-.34,6.26-1.38,2.54-1.23,3.96-3.98,3.5-6.76-.3-2.73-2.19-4.05-4.52-4.83Z"/>
  <path class="cls-1" d="m200.45,57.67c3.17-1.12,5.16-3.67,5.12-6.56-.04-2.89-2.1-5.03-5.5-5.94-1.28-.33-2.59-.59-3.85-1.01-.79-.23-1.61-.62-1.54-1.64s.77-1.48,1.72-1.74c1.56-.38,3.2-.16,4.6.62,1.56.77,2.4.46,3.1-1.01.21-.4.46-.78.74-1.13.38-.5.33-.81-.24-1.21-3.02-2.11-9.54-2.29-12.76-.28-2.23,1.25-3.4,3.79-2.91,6.3.27,2.27,1.89,4.14,4.09,4.75,1.43.49,2.93.75,4.39,1.18,1.13.33,2.24.8,2.11,2.25s-1.42,1.77-2.65,1.88c-2.02.19-4.06-.15-5.91-1.01-.9-.4-1.54-.39-1.81.75-.13.49-.34.96-.62,1.38-.63,1.01-.33,1.59.77,1.96,2.02.79,4.18,1.17,6.35,1.12,1.63.12,3.26-.12,4.79-.68Z"/>
  <path class="cls-1" d="m121.91,40.47c-1.21-3.45-1.25-3.39-4.97-3.41-1.01-.15-1.96.51-2.16,1.51-1.85,5.29-3.84,10.53-5.75,15.8-1.35,3.73-1.29,3.73,2.74,3.66.81.15,1.6-.36,1.8-1.17,1.21-3.37,1.25-3.35,4.79-3.35.13.01.26.01.38,0,1.1-.37,2.29.23,2.66,1.33.07.22.11.45.11.68.36,1.92,1.23,3.19,3.17,2.54q3.25,0,2.33-2.71c-1.68-5-3.36-9.95-5.09-14.89Zm-2.86,9.13c-.87.12-1.75.12-2.63,0-.65-.11-.24-.72-.15-1.11.44-1.79.92-3.6,1.37-5.39h.35c.46,1.85.94,3.71,1.38,5.57.07.29.15.86-.32.93Z"/>
  <path class="cls-1" d="m248.74,53.78c-1.9.08-3.8,0-5.69,0-.55,0-1.1.1-1.3-.72-.69-2.87,0-3.85,2.93-3.85h2.09c.54,0,.92-.1,1.01-.77.57-2.63,0-3.36-2.64-3.36-.63,0-1.26,0-1.9,0-1.3.16-1.55-.42-1.6-1.64,0-1.61.25-2.54,2.14-2.23.87.13,1.78-.1,2.65,0,2.09.32,2.93-.51,3.1-2.58.1-1.17,0-1.6-1.25-1.57-3.48.06-6.96.07-10.44,0-1.23,0-1.48.47-1.45,1.57.05,2.91,0,5.81,0,8.71v9.1c0,1.15.33,1.54,1.51,1.52,3.61-.06,7.22-.08,10.82,0,1.78,0,1.32-1.15,1.3-2.01s.64-2.25-1.28-2.16Z"/>
  <path class="cls-1" d="m104.37,53.78c-1.9.07-3.79,0-5.69,0-.55,0-1.1.09-1.3-.72-.7-2.83.05-3.85,2.94-3.85.31-.02.63-.02.95,0,1.67.25,2.28-.3,2.27-2.12s-.56-2.23-2.17-2.01c-.81.1-1.64-.05-2.46,0-1.29.14-1.54-.44-1.59-1.64-.07-1.64.3-2.5,2.15-2.23.88.13,1.79-.1,2.66,0,2.1.36,2.9-.52,3.08-2.58.1-1.16,0-1.59-1.25-1.56-3.48.06-6.96.07-10.43,0-1.24,0-1.47.48-1.45,1.57v17.99c0,.94.23,1.36,1.27,1.35,3.67,0,7.33-.09,11.01,0,1.73,0,1.38-1.1,1.33-2.01s.62-2.24-1.3-2.17Z"/>
  <path class="cls-1" d="m141.6,53.8h-5.31c-1.01,0-1.35-.32-1.31-1.31v-11.73c0-3.7,0-3.65-3.7-3.64-1.19,0-1.66.26-1.64,1.56.06,5.95.06,11.89,0,17.82,0,1.33.52,1.56,1.68,1.53,2.59-.07,5.19,0,7.78,0,3.02,0,2.91,0,3.61-2.95.23-1.24-.18-1.3-1.11-1.28Z"/>
  <path class="cls-1" d="m212.16,58.03c1.24,0,1.46-.47,1.45-1.56-.06-2.96,0-5.93,0-8.89v-6.58c0-3.89,0-3.83-3.87-3.85-1.32,0-1.74.37-1.72,1.71.07,5.03,0,10.06,0,15.09.04,4.83-.55,3.92,4.14,4.08Z"/>
</svg>