<?xml version="1.0" encoding="UTF-8"?>
<svg id="Layer_1" data-name="Layer 1" xmlns="http://www.w3.org/2000/svg" viewBox="0 0 300 81">
  <defs>
    <style>
      .cls-1 {
        fill: #5c5d5f;
        stroke-width: 0px;
      }
    </style>
  </defs>
  <path class="cls-1" d="m75.16,60.77l-8.5-1.88V20.06c3.36-.93,7.44-1.44,12.24-1.52,4.8-.08,7.68.24,8.66.97,1.25.81,2.95,2.23,5.07,4.25,2.13,2.03,3.8,3.75,5.01,5.16.53.85.79,1.9.79,3.16s-.45,2.7-1.34,4.34c-.89,1.64-2.09,3.03-3.58,4.16,3.28,1.9,5.95,4.03,8.02,6.38.69.81.95,1.96.79,3.46-.16,1.5-.79,3.06-1.88,4.68-1.09,1.62-2.74,3.06-4.95,4.31-2.21,1.26-4.98,2.06-8.32,2.4-3.34.34-7.34-.01-12-1.06Zm-.12-35.05l.06,13.67c3.12,0,5.81-.39,8.08-1.18,2.27-.79,3.93-1.76,4.98-2.92,1.05-1.15,1.82-2.38,2.31-3.68.49-1.3.66-2.47.52-3.52-.14-1.05-.44-1.82-.88-2.31-.77-.81-2-1.33-3.68-1.55-1.68-.22-3.47-.18-5.38.12-1.9.3-3.91.76-6.01,1.37Zm.06,16.71l.06,15.13c7.21.73,12.49-.51,15.86-3.71,2.19-2.11,2.98-4.47,2.37-7.11-.41-1.78-1.42-3.22-3.04-4.31-4.17,1.78-9.25,1.78-15.25,0Z"/>
  <path class="cls-1" d="m115.98,54.45c1.13,1.38,2.41,2.23,3.83,2.55,1.42.32,2.91.13,4.47-.58,1.56-.71,2.86-1.42,3.92-2.13,1.05-.71,2.29-1.65,3.71-2.82l1.21,1.21c.77.85,1.54,1.7,2.31,2.55l1.22,1.21c-3.52,2.59-6.5,4.32-8.93,5.19-2.43.87-4.84.86-7.23-.03-3.48-1.34-6.76-3.68-9.84-7.05-1.82-2.02-2.88-4.42-3.16-7.2-.28-2.77.07-5.36,1.06-7.75.99-2.39,2.53-4.42,4.62-6.11,2.09-1.68,4.36-2.52,6.83-2.52,1.62,0,4.02,1.04,7.2,3.13,3.18,2.09,5.82,4.12,7.93,6.11-.04.12-1.65,1.37-4.83,3.74-3.18,2.37-6.37,4.71-9.57,7.02l-4.74,3.46Zm-1.4-5.83l13.79-9.42c-2.92-1.86-5.4-2.55-7.44-2.07-2.05.49-3.61,1.75-4.71,3.8-1.09,2.05-1.64,4.61-1.64,7.68Z"/>
  <path class="cls-1" d="m146.23,33.37l7.78,18.89,8.02-20.59,7.59,1.7-11.3,29.1h-.06l-7.53-1.7h-.06l-12.03-29.1,7.59,1.7Z"/>
  <path class="cls-1" d="m181.04,54.45c1.13,1.38,2.41,2.23,3.83,2.55,1.42.32,2.91.13,4.47-.58,1.56-.71,2.86-1.42,3.92-2.13,1.05-.71,2.29-1.65,3.71-2.82l1.22,1.21c.77.85,1.54,1.7,2.31,2.55l1.21,1.21c-3.52,2.59-6.5,4.32-8.93,5.19-2.43.87-4.84.86-7.23-.03-3.48-1.34-6.76-3.68-9.84-7.05-1.82-2.02-2.88-4.42-3.16-7.2-.28-2.77.07-5.36,1.06-7.75.99-2.39,2.53-4.42,4.62-6.11,2.09-1.68,4.36-2.52,6.83-2.52,1.62,0,4.02,1.04,7.2,3.13,3.18,2.09,5.82,4.12,7.93,6.11-.04.12-1.65,1.37-4.83,3.74-3.18,2.37-6.37,4.71-9.57,7.02l-4.74,3.46Zm-1.4-5.83l13.79-9.42c-2.92-1.86-5.4-2.55-7.44-2.07-2.05.49-3.61,1.75-4.71,3.8-1.09,2.05-1.64,4.61-1.64,7.68Z"/>
  <path class="cls-1" d="m214.7,33.37v4.5c2.96-4.66,5.47-6.99,7.53-6.99,1.01,0,2.71.52,5.1,1.55,2.39,1.03,4.39,2.1,6.01,3.19l-4.19,6.07c-2.51-1.86-4.69-2.89-6.53-3.07-1.84-.18-3.31.18-4.4,1.09-1.09.91-2.27,2.38-3.52,4.4v18.35l-7.59-1.7v-29.1l7.59,1.7Z"/>
</svg>