<?xml version="1.0" encoding="UTF-8"?>
<svg id="Layer_1" data-name="Layer 1" xmlns="http://www.w3.org/2000/svg" viewBox="0 0 300 81">
  <defs>
    <style>
      .cls-1 {
        fill: #5c5d5f;
        stroke-width: 0px;
      }
    </style>
  </defs>
  <path class="cls-1" d="m103.67,40.18c.07-4.91,0-9.82-.11-14.74-.05-2.42.43-2.87,2.8-2.86,8.16.1,6.03-.98,10.6,5.4,2.97,4.14,5.91,8.3,8.89,12.43.25.35.38,1.01,1.04.73.5-.22.31-.73.31-1.12v-14.94c0-2.28.21-2.48,2.43-2.5h5.05c.99-.14,1.91.56,2.05,1.55.02.12.02.25.01.38v2.33c0,9.23,0,18.47.09,27.7,0,2.84-.24,3.28-3.03,3.28h-1.99c-2.82.29-5.55-1.07-7.03-3.49-3.27-4.73-6.66-9.39-9.98-14.08-.3-.42-.45-1.15-1.12-.98-.82.22-.44.99-.44,1.54v14.57c0,2.1-.44,2.47-2.59,2.43h-4.53c-2.01,0-2.5-.36-2.52-2.35,0-2.34.08-4.67.1-7.01-.02-2.76-.03-5.51-.03-8.27Z"/>
  <path class="cls-1" d="m204.65,40.16v-14.21c0-2.96.36-3.36,3.26-3.36h20.79c2.48,0,2.93.49,2.85,2.95,0,1.25-.06,2.52,0,3.77.09,1.62-.61,2.27-2.24,2.24-4.15-.06-8.31,0-12.47,0-1.59,0-2.54.38-2.55,2.17s1.08,2.14,2.59,2.12c3.56-.05,7.11,0,10.67,0,1.71,0,2.22.8,2.16,2.33-.1,1.51-.12,3.02-.05,4.53.1,1.66-.63,2.29-2.21,2.28-3.56,0-7.11,0-10.66-.05-1.46,0-2.5.24-2.49,2s1.05,2.03,2.5,2.01c4.1-.05,8.16,0,12.29,0,2.06,0,2.43.34,2.45,2.38v4.86c.15.85-.42,1.67-1.28,1.81-.18.03-.36.03-.54,0-7.77,0-15.54,0-23.31,0-1.72,0-1.81-1.26-1.81-2.52.04-5.17.06-10.27.06-15.31Z"/>
  <path class="cls-1" d="m143.65,40.17v-14.22c0-2.98.32-3.36,3.23-3.36h20.96c2.43,0,2.79.4,2.72,2.85v3.95c0,1.81-.55,2.32-2.39,2.3-4.15-.04-8.31-.08-12.46-.1-1.25,0-2.29.26-2.46,1.77s.48,2.4,2.09,2.41h10.88c2.09,0,2.59.49,2.48,2.56-.08,1.5,0,2.99,0,4.53s-.6,2.1-2.06,2.08h-10.3c-2.72,0-3.06.32-3.06,3.12v7.03c0,2.59-.22,2.79-2.72,2.72h-3.8c-2.78.07-3.08-.21-3.08-3.03-.03-4.9-.03-9.76-.03-14.61Z"/>
  <path class="cls-1" d="m71.39,22.7c3.63-1.19,5.87.98,7.43,4.63.97,1.99,2.07,3.92,3.29,5.77.84,1.41,1.26,1.41,2.08,0,1.57-2.72,3.13-5.38,4.53-8.16.77-1.69,2.58-2.65,4.42-2.34,1.98.15,3.96,0,5.95.09,1.81,0,1.97.36,1.04,1.88-3.26,5.31-6.48,10.64-9.85,15.87-1.86,2.67-2.74,5.9-2.49,9.14.18,2.14,0,4.31,0,6.47,0,1.21-.57,1.75-1.81,1.75h-5.95c-.9.13-1.73-.49-1.86-1.39-.03-.23-.02-.46.04-.68.31-2.5-.13-5.01.26-7.52s-.64-4.72-1.92-6.78c-3.14-5.17-6.36-10.35-9.62-15.53-.31-.51-.62-1.02-.91-1.55-.56-1.03-.24-1.61.91-1.63s2.57,0,4.46,0Z"/>
  <path class="cls-1" d="m175.13,40.08v-14.92c0-2.26.42-2.63,2.62-2.62,1.56,0,3.12.05,4.68,0s2.36.57,2.35,2.19v21.77c0,1.62.67,2.4,2.39,2.37,3.97-.06,7.94,0,11.92,0,2.14,0,2.39.27,2.39,2.36,0,1.5.05,2.99.07,4.53s-.57,2.1-2.04,2.1h-22.19c-1.71,0-2.14-.91-2.13-2.41-.05-5.13-.06-10.23-.06-15.36Z"/>
  <path class="cls-1" d="m252.62,32.58c1.87-2.65,3.75-5.28,5.58-7.95.81-1.38,2.34-2.17,3.94-2.03,2.16.16,4.33.16,6.48,0,.71-.05,1.52-.16,1.9.66s-.29,1.22-.67,1.71c-3.87,5.12-8.05,9.98-11.79,15.25-1.58,2.7-3.45,5.22-5.58,7.52-2.08,2.08-3.83,4.46-5.21,7.06-1.06,2.1-3.32,3.32-5.65,3.04-1.91-.14-3.85,0-5.77,0-.6,0-1.3.15-1.58-.54-.17-.59.01-1.23.47-1.64,3.07-3.92,6.12-7.85,9.18-11.79.96-1.23,1.81-2.52,2.72-3.77,1.74-2.69,3.74-5.21,5.97-7.51Z"/>
  <path class="cls-1" d="m35.05,45.21c-1.08-.07-2.17-.07-3.25,0-1.46.19-1.95-.41-2.18-1.81-1.44-8.35,3.07-16.6,10.88-19.89,7.75-3.37,16.79-1.2,22.17,5.31,1.45,1.81,1.36,2.39-.63,3.69-1.15.76-2.38,1.41-3.47,2.24-1.42,1.07-2.48.91-3.73-.39-4.14-4.33-9.98-4.28-13.55,0-2.03,2.38-2.62,5.67-1.55,8.61.66,2.14.67,2.13-1.61,2.14l-3.08.1Z"/>
  <path class="cls-1" d="m252.62,32.58c-1.81,2.64-3.49,5.34-5.9,7.5-1.64-1.51-2.65-3.51-4.01-5.24-2.58-3.29-5.21-6.58-7.81-9.86-.44-.56-1.05-1.14-.63-1.9s1.17-.49,1.81-.49h7.4c1.02-.04,1.99.47,2.53,1.33,1.59,2.19,3.11,4.4,4.6,6.66.51.81,1.19,1.5,2,2Z"/>
  <path class="cls-1" d="m252.48,47.74c1.53-2.74,3.4-5.27,5.59-7.52,3.97,5.11,7.93,10.22,11.88,15.32.43.56.73,1.12.36,1.81s-.91.51-1.42.51c-2.47,0-4.93-.06-7.39,0-1.22.04-2.37-.58-2.99-1.62-1.94-2.88-3.98-5.68-6.02-8.5Z"/>
  <path class="cls-1" d="m43.36,45.98h11.18c.65,0,1.44-.15,1.81.55s-.25,1.12-.57,1.61c-2.15,3.28-5.73,5.34-9.64,5.58-4.47.44-8.76-.2-12.45-3.07-.58-.42-1.12-.9-1.62-1.41-.74-.79-1.71-1.81-1.3-2.77.28-.68,1.64-.23,2.51-.24h10.11l-.04-.25Z"/>
  <path class="cls-1" d="m54.18,45.04h-9.74c-.63,0-1.43.2-1.76-.54s.37-1.2.75-1.7c2.32-3,5.91-4.74,9.7-4.71,3.54-.12,7.08,0,10.63,0,1.52,0,2.06.67,1.95,2.09-.06.7-.08,1.4-.06,2.1,0,2.55.06,2.58-2.59,2.62h-8.83l-.05.14Z"/>
  <path class="cls-1" d="m35.67,54.79c1.31-.7,2.43-.19,3.63-.05,5.97.75,11.79.66,16.42-3.95.9-.88,1.65-1.91,2.21-3.04.47-1.29,1.83-2.03,3.17-1.72.83.09,1.68.09,2.51,0,1.81-.09,2.17.31,1.47,1.89-2.45,6.11-8.1,10.34-14.65,10.97-5.43.73-10.17-.86-14.76-4.11Z"/>
</svg>