<?xml version="1.0" encoding="UTF-8"?>
<svg id="Layer_1" data-name="Layer 1" xmlns="http://www.w3.org/2000/svg" viewBox="0 0 300 81">
  <defs>
    <style>
      .cls-1 {
        fill: #5c5d5f;
        stroke-width: 0px;
      }
    </style>
  </defs>
  <path class="cls-1" d="m53.58,70.31c-.39-3.48-.77-6.94-1.19-10.71-1.25,1.91-.57,4.05-1.83,6.08-1.43-5.62-.82-11.15-1.74-16.57-1.27.16-.79,2.15-1.97,1.73-1.01-.34-.37-1.8-1.28-2.78-1.24,3.7-.53,7.5-1.59,11.38-1.14-2.7-.49-5.44-1.65-8.26-1.2,3.68-.85,7.28-2.25,10.98-1.71-5.02-.63-9.94-1.76-14.55-.19,0-.42-.06-.49,0-.74.78-.19,2.65-1.58,2.61-1.15,0-.33-1.95-1.33-2.55-.72.4-.43,1.55-1.52,1.87-1.35-6.3-6.71-7.24-12.36-8.8,5.34-1.8,11.15-2.16,12.26-8.64.83-.15.84.49,1.07.85s.32.64.5,1.01c1.07-.72.23-2.61,1.43-2.65,1.41,0,.74,2.03,2.03,2.97,1.16-4.88.16-9.78,1.74-14.97,1.56,3.78,1.01,7.44,2.66,10.65l1.01-7.62c1.3,3.61.75,7.36,1.77,11.15,1.01-.78.4-2.21,1.19-2.6,1.48-.74.93,1.24,2.03,1.64,1.16-5.45.34-11.15,1.84-16.76,1.2,2.03.69,4.21,1.67,6.19,1.01-3.64.46-7.37,1.74-11.28,1.45,4.37,1.09,8.5,1.87,12.71,1.12-2.03.46-4.21,1.67-6.34.92,4.81.23,9.38,1.12,13.93,1.01-.62.5-1.9,1.45-2.45,1.12,1.23.75,2.98,1.28,4.43,1.01-.3.46-1.48,1.35-1.73,1.01.75.52,2.25,1.58,3.13,1.01-1.84.51-4.05,1.42-5.9,1.16.3.9,1.49,1.59,2.17,1.01-.87.55-2.29,1.43-3.49,1.51,2.8,1.01,6.17,2.83,8.74,1.01-.58.34-1.9,1.39-2.22,1.01.41.36,1.91,1.48,2.25.87-.32.43-1.57,1.35-1.87.12,0,.35.08.39.17,1.48,4.29,5.57,4.47,8.98,5.7.65.23,1.37.21,1.96.92-4.2,1.62-9.12,1.91-11.22,6.76-1.09-.22-.59-1.5-1.46-1.9-1.15.24-.48,1.77-1.47,2.19-1.08-.26-.45-1.57-1.35-2.2-1.81,2.54-1.5,5.77-2.75,8.68-1.07-1.01-.67-2.35-1.31-3.3-1.17.19-.6,1.8-1.8,2.03-1.01-1.79-.42-4.05-1.47-5.88-1.01.82-.63,2.24-1.55,3.04-.95-.09-.35-1.28-1.18-1.67-.85,1.29-.39,3.04-1.44,4.47-.93-.62-.58-1.81-1.64-2.76-.26,4.81-.52,9.31-.79,14.25-1.43-2.1-.82-4.26-1.81-6.53-.85,4.37-.42,8.52-2.3,12.29Z"/>
  <path class="cls-1" d="m167.23,16.84c-2.36,0-3.94,1.32-3.87,3.85-.08,1.9,1.39,3.51,3.29,3.59.19,0,.39,0,.58-.02,2.4,0,3.8-1.34,3.91-3.83.01-1.98-1.58-3.59-3.55-3.6-.12,0-.24,0-.36.02Z"/>
  <path class="cls-1" d="m122.82,26.04c-.94,2.74-1.86,5.47-2.82,8.21-1.23,3.48-2.46,6.94-3.99,11.24l-6.83-19.52q-1.95-5.57-7.92-5.07c-.19.05-.38.13-.56.21,3.18,8.65,6.37,17.31,9.56,25.97,2.1,5.69,2.1,5.67,8.02,5.18,1.01-.08,1.64-.12,2.03-1.29,3.6-9.98,7.29-19.92,10.98-29.94q-6.5-.7-8.45,5Z"/>
  <path class="cls-1" d="m278.86,27.34q-6.08-.42-8.26,5.26c-1.42,3.78-2.86,7.54-4.5,11.86-1.58-4.19-2.96-7.82-4.33-11.48q-2.23-5.96-9.2-5.65c3.04,7.31,5.85,14.37,8.86,21.34.93,1.87.89,4.07-.11,5.9-1.48,2.97-2.68,6.08-4.05,9.19q6.39.78,8.73-4.76c3.99-9.47,8.02-18.92,11.96-28.38.47-1.05,1.32-2.01.91-3.27Z"/>
  <path class="cls-1" d="m248.85,20.72c-4.98.18-9.97.13-14.95,0-1.78,0-2.4.42-2.34,2.29.13,4.51,0,9.04,0,13.55v13.56c0,.78-.48,1.77,1.01,2.14,3.71.93,5.29-.12,5.29-3.79v-2.1q0-7.33,7.21-7.42c2.68,0,4.05-1.8,2.86-4.1-.96-1.91-2.91-.84-4.37-.87-5.93-.14-5.84-.06-5.75-5.92,0-1.88.61-2.36,2.38-2.27,2.89.13,5.8-.09,8.68.07,2.03.12,2.24-.76,2.21-2.43s.08-2.82-2.24-2.71Z"/>
  <path class="cls-1" d="m190.38,33.34c2.44,3.11,5.36,2.23,8.37,2.19-1.37-6.18-6.32-9.38-13.11-8.58-6.56.77-10.66,5.71-10.65,12.8s4.19,12.08,11.03,12.86c6.27.72,11.44-2.78,12.72-8.73-2.98.08-5.93-.93-8.35,2.27-1.54,2.03-5.37,1.27-7.19-.75-2.35-2.61-2.35-8.77,0-11.39,1.82-2.02,5.56-2.72,7.19-.67Z"/>
  <path class="cls-1" d="m170.34,39.98c0-3.36-.18-6.74.06-10.08.18-2.52-.93-2.87-2.99-2.71-1.77.14-3.58-.51-3.46,2.61.26,6.59.22,13.17,0,19.81-.08,2.56,1.01,2.84,3.04,2.67,1.72-.15,3.75.62,3.44-2.57s-.09-6.52-.09-9.73Z"/>
  <path class="cls-1" d="m217.72,27.15c-10.39-2.03-17.96,6.25-15.14,16.62,1.51,5.47,6.61,9.17,12.28,8.91,5.62-.1,9.82-3.14,11.08-8.03q-4.69-.55-8.11,1.8c-2.79,1.72-6.44.91-8.25-1.81-.45-.77-1.19-1.68-.65-2.57s1.48-.34,2.24-.35h13.56c1.26,0,2.13,0,2.32-1.7.68-6.05-3.37-11.63-9.33-12.86Zm.93,10.29c-3.22-.08-6.45,0-10.04,0,.71-3.39,2.47-5.13,5.45-5.35,2.47-.33,4.86,1.01,5.87,3.29.69,1.4.5,2.11-1.28,2.06Z"/>
  <path class="cls-1" d="m146.68,26.8c-6.9-.28-12.71,5.08-13,11.97-.01.29-.01.57,0,.86-.07,7.54,5.32,13.05,12.76,13.04,6.92.24,12.74-5.17,12.98-12.1,0-.25.01-.51,0-.76.05-7.56-5.21-12.94-12.74-13.01Zm-.33,20.27c-3.74-.07-6.08-2.9-6.08-7.35s2.42-7.41,6.43-7.31c3.75.08,6.22,2.96,6.23,7.28s-2.76,7.47-6.58,7.38Z"/>
</svg>