<?xml version="1.0" encoding="UTF-8"?>
<svg id="Layer_1" data-name="Layer 1" xmlns="http://www.w3.org/2000/svg" viewBox="0 0 300 81">
  <defs>
    <style>
      .cls-1 {
        fill: #5c5d5f;
        stroke-width: 0px;
      }
    </style>
  </defs>
  <g>
    <polygon class="cls-1" points="138.98 10.44 131.21 10.44 131.21 24.57 123.08 24.57 123.08 31.64 131.21 31.64 131.21 58.49 138.98 58.49 138.98 31.64 147.11 31.64 147.11 24.57 138.98 24.57 138.98 10.44"/>
    <polygon class="cls-1" points="166.47 46.67 157.78 24.57 149.23 24.57 162.12 55.08 153.61 72.63 162.23 72.63 168.52 58.85 184.28 24.57 175.66 24.57 166.47 46.67"/>
    <polygon class="cls-1" points="219.26 24.57 210 24.57 196.29 40.52 196.29 7.61 188.52 7.61 188.52 58.49 196.29 58.49 196.29 41.86 210.08 58.49 219.97 58.49 204.97 40.84 219.26 24.57"/>
    <path class="cls-1" d="m253.93,32.52c-1.58-2.66-3.71-4.77-6.4-6.33-2.69-1.55-5.7-2.33-9.05-2.33s-6.29.79-8.98,2.37c-2.69,1.58-4.82,3.69-6.4,6.33-1.58,2.64-2.37,5.61-2.37,8.9s.79,6.29,2.37,8.98c1.58,2.69,3.71,4.82,6.4,6.4,2.69,1.58,5.68,2.37,8.98,2.37s6.36-.79,9.05-2.37c2.69-1.58,4.82-3.71,6.4-6.4,1.58-2.69,2.37-5.68,2.37-8.98s-.79-6.28-2.37-8.94Zm-6.86,14.24c-.82,1.55-1.98,2.77-3.46,3.64-1.48.87-3.19,1.31-5.12,1.31s-3.57-.44-5.05-1.31c-1.48-.87-2.64-2.08-3.46-3.64-.82-1.55-1.24-3.32-1.24-5.3s.41-3.72,1.24-5.23c.82-1.51,1.98-2.7,3.46-3.57,1.48-.87,3.17-1.31,5.05-1.31s3.63.44,5.09,1.31c1.46.87,2.61,2.06,3.46,3.57.85,1.51,1.27,3.25,1.27,5.23s-.41,3.75-1.24,5.3Z"/>
  </g>
  <g>
    <path class="cls-1" d="m98.77,57.67c.45-.58.88-1.18,1.28-1.79.27-.41.53-.83.78-1.25,2.23-3.8,3.55-8.07,3.85-12.54.04-.65.07-1.31.07-1.97s-.02-1.32-.07-1.97c-.3-4.47-1.62-8.74-3.85-12.54-.25-.42-.51-.84-.78-1.25-.4-.61-.83-1.21-1.28-1.79l-3.41,3.41c2.9,3.97,4.62,8.86,4.62,14.14s-1.72,10.17-4.62,14.14l3.41,3.41Z"/>
    <path class="cls-1" d="m105.6,23.3c0-7.1-5.76-12.86-12.86-12.86h-33.64c-7.1,0-12.86,5.76-12.86,12.86v12.34c.62-4.21,2.13-8.22,4.44-11.8.11-.17.22-.34.33-.51v-.04c0-4.46,3.63-8.09,8.09-8.09h2.48c-.43.25-.85.51-1.26.78-.65.42-1.28.87-1.89,1.34-.35.27-.69.55-1.03.84-.6.51-1.19,1.05-1.75,1.61-.57.57-1.1,1.15-1.61,1.75l3.39,3.39,15.2,15.2h0l.98.99v22.89c-4.84-.48-9.25-2.4-12.82-5.32-1.23-1.01-2.36-2.14-3.36-3.36-3.4-4.14-5.44-9.43-5.44-15.2,0-5.28,1.72-10.17,4.62-14.14l-3.41-3.41c-.5.65-.97,1.31-1.41,1.99-.27.42-.53.84-.78,1.27-2.47,4.3-3.79,9.19-3.79,14.29s1.32,9.98,3.79,14.29c.25.43.51.86.78,1.27,1.1,1.71,2.39,3.31,3.86,4.77,1.44,1.44,3.01,2.71,4.67,3.79.41.27.84.53,1.26.78h-2.48c-4.46,0-8.09-3.63-8.09-8.09v-.04c-.11-.17-.22-.34-.33-.51-2.31-3.58-3.82-7.6-4.44-11.8v12.34c0,7.1,5.76,12.86,12.86,12.86h33.64c7.1,0,12.86-5.76,12.86-12.86v-11.53c-.71,3.99-2.22,7.82-4.45,11.2-.11.16-.22.33-.33.49-.08,4.34-3.61,7.85-7.95,7.92-.04,0-.09,0-.13,0h-2.35c.43-.25.85-.51,1.26-.78.65-.42,1.28-.87,1.89-1.34l-3.41-3.41c-3.36,2.46-7.39,4.07-11.76,4.5v-18.13l12.82,12.82h0s3.39,3.39,3.39,3.39c.6-.51,1.19-1.05,1.75-1.61s1.1-1.15,1.61-1.75l-18.58-18.58,18.58-18.58c-.51-.6-1.05-1.19-1.61-1.75-.56-.56-1.15-1.1-1.75-1.61l-3.39,3.39h0s-12.82,12.82-12.82,12.82v-18.13c4.37.43,8.4,2.04,11.76,4.5l3.41-3.41c-.61-.47-1.24-.92-1.89-1.34-.41-.27-.84-.53-1.26-.78h2.35s.09,0,.13,0c4.35.07,7.87,3.58,7.95,7.92.11.16.22.33.33.49,2.23,3.39,3.74,7.21,4.45,11.2v-11.53Zm-43.76-2.56c3.36-2.46,7.39-4.07,11.76-4.5v18.13l-12.82-12.82c.34-.28.69-.55,1.05-.82Z"/>
  </g>
</svg>