<?xml version="1.0" encoding="UTF-8"?>
<svg id="Layer_1" data-name="Layer 1" xmlns="http://www.w3.org/2000/svg" viewBox="0 0 300 81">
  <defs>
    <style>
      .cls-1 {
        fill: #5c5d5f;
        stroke-width: 0px;
      }
    </style>
  </defs>
  <path class="cls-1" d="m110.34,62.25c-2.92.03-5.77-.87-8.14-2.58-2.25-1.6-4.03-3.77-5.16-6.29-1.13-2.56-1.7-5.32-1.68-8.11,0-2.65.57-5.27,1.68-7.68,1.04-2.35,2.69-4.38,4.78-5.89,2.33-1.65,5.14-2.49,7.99-2.39,2.44-.02,4.84.57,6.99,1.71,2.06,1.04,3.73,2.72,4.75,4.8.46.89.7,1.88.71,2.88.03,1.1-.36,2.17-1.09,3-.82.88-1.95,1.4-3.15,1.46-.25.03-.51.03-.76,0-1.21.05-2.4-.27-3.42-.92-.83-.58-1.25-1.16-1.25-1.74,0-.23.05-.46.14-.68.09-.23.22-.53.4-.89s.31-.64.38-.82c.21-.5.32-1.03.33-1.57.02-1.1-.5-2.14-1.39-2.8-.91-.74-2.05-1.14-3.23-1.12-1.18,0-2.33.38-3.28,1.09-1.06.82-1.83,1.96-2.2,3.26-.44,1.35-.66,2.76-.66,4.18,0,3.64,1.1,7.19,3.18,10.18,2.12,3.13,4.5,4.7,7.14,4.7,2.28,0,4.3-1.31,6.07-3.91.19-.25.37-.52.54-.79.22-.34.38-.59.49-.73.12-.15.26-.29.41-.41.15-.12.33-.19.52-.19h0c.54,0,.81.63.81,1.79,0,.51-.06,1.02-.16,1.52-.43,2.67-1.9,5.06-4.08,6.65-2.16,1.54-4.76,2.35-7.41,2.31h-.27Z"/>
  <path class="cls-1" d="m164.85,37.82c3.8.19,6.65,1.52,8.57,4,1.91,2.49,2.96,5.54,3,8.68v.33c.03,2.33-.64,4.62-1.93,6.56-1.35,2.01-3.35,3.51-5.67,4.24-1.54.52-3.15.8-4.78.81h-.87c-3.81-.18-6.67-1.51-8.58-4-1.91-2.49-2.96-5.54-3-8.68v-.33c-.03-2.33.63-4.61,1.9-6.56,1.34-2.01,3.34-3.51,5.65-4.24,1.52-.55,3.11-.83,4.73-.82h.98Zm3.31,13.58c0-2.76-.6-5.49-1.77-7.99-1-2-2.14-3-3.34-3-.9,0-1.65.62-2.25,1.87-.68,1.7-.99,3.52-.9,5.35v1.14c.02,2.74.62,5.44,1.77,7.92,1,2,2.14,3,3.34,3,.9,0,1.66-.62,2.25-1.87.69-1.73.99-3.59.9-5.46v-.96Z"/>
  <path class="cls-1" d="m186.5,27.73l.11,20.14c1.78-.96,3.45-2.1,5-3.4,1.47-1.25,2.2-2.38,2.2-3.4,0-.45-.17-.88-.49-1.19-.11-.11-.28-.26-.51-.46s-.41-.36-.52-.46c-.12-.13-.22-.28-.3-.44-.09-.17-.13-.35-.13-.54.04-.45.21-.89.49-1.25.67-1.03,1.72-1.75,2.93-2,.39-.1.79-.16,1.19-.16.91-.02,1.78.35,2.42,1,.67.67,1.03,1.58,1,2.53v.27c-.13,1.73-.8,3.37-1.92,4.69-1.42,1.64-3.09,3.04-4.95,4.15.54.98,1.73,3.58,3.56,7.79,1.83,4.22,3.55,7.79,5.16,10.72,1.61,2.93,2.93,4.4,3.94,4.4.83,0,1.25-.35,1.25-1-.02-.39-.11-.78-.27-1.14-.31-.68-.56-1.39-.76-2.12.07-.64.44-1.2,1-1.52.9-.54,1.94-.83,3-.82.24,0,.48.01.71.06.97.09,1.89.49,2.63,1.14.65.58,1.01,1.41,1,2.28-.02.65-.19,1.28-.49,1.85-1,2.14-2.99,3.64-5.33,4-.79.17-1.59.26-2.39.27-1.64,0-3.25-.41-4.69-1.19-1.42-.78-2.71-1.79-3.81-2.99-1.24-1.34-2.35-2.81-3.31-4.37-1.01-1.57-1.93-3.19-2.77-4.86-.73-1.47-1.57-3.19-2.53-5.17-.96-1.98-1.73-3.47-2.31-4.48l.06,8.25c.04.91.28,1.8.7,2.61.06.12.1.25.11.38,0,.4-.24.6-.71.6h-7.59c-.44,0-.65-.2-.65-.6-.03-.13-.03-.25,0-.38.42-.81.68-1.7.76-2.61l-.31-25.67c.01-.48-.11-.96-.36-1.38-.15-.24-.29-.48-.41-.74v-.1c0-.44.28-.75.82-.93,2.21-.45,4.29-1.39,6.07-2.77.22-.17.48-.28.76-.32.44,0,.64.43.64,1.3Z"/>
  <path class="cls-1" d="m210.01,38.75l.1,19.59c.09.91.35,1.79.76,2.61.07.11.11.25.11.38,0,.4-.23.6-.7.6h-7.6c-.47,0-.7-.2-.7-.6,0-.13.04-.26.1-.38.42-.81.68-1.7.76-2.61l-.32-14.66c0-.32-.04-.64-.14-.95-.08-.24-.2-.47-.35-.68-.12-.12-.21-.27-.27-.43v-.22c0-.43.27-.72.81-.87,2.21-.49,4.28-1.45,6.08-2.82.21-.15.45-.25.7-.28.44,0,.66.44.66,1.31Zm-3.7-12.27c2.37.03,4.27,1.97,4.25,4.35-.01,1.12-.46,2.18-1.25,2.98-1.67,1.66-4.37,1.66-6.04,0-1.66-1.63-1.68-4.29-.05-5.95.02-.02.03-.03.05-.05.78-.85,1.89-1.33,3.05-1.33Z"/>
  <path class="cls-1" d="m217.76,40.59c2.2-1.85,5.23-2.77,9.07-2.78,2.31-.08,4.58.53,6.53,1.77,1.75,1.18,2.75,3.19,2.64,5.3v.21c-.02.81-.21,1.61-.57,2.34-.29.56-.67,1.08-1.12,1.53-.57.47-1.22.83-1.93,1.06-.67.26-1.36.47-2.06.65-.49.11-1.31.27-2.47.49-2.46.51-4.03,1.38-4.73,2.61.32,1.19,1.02,2.25,2,3,.92.73,2.06,1.12,3.23,1.11,2,0,3.76-1,5.21-3.1.14-.18.27-.37.38-.57l.36-.54c.08-.12.19-.23.3-.32.1-.09.24-.14.38-.14h0c.43,0,.65.51.65,1.41-.07,2.46-1.33,4.73-3.39,6.08-1.81,1.21-3.94,1.83-6.11,1.79-2.61,0-5.15-.8-7.29-2.28-2.27-1.53-3.92-3.82-4.65-6.46-.43-1.31-.65-2.68-.65-4.07-.09-3.52,1.47-6.88,4.22-9.08Zm7.06.21c-2,.18-3,2.31-3,6.4.02,1.31.11,2.61.28,3.91.78-.56,1.62-1.03,2.52-1.38,1.03-.41,1.97-1.02,2.78-1.78.7-.79,1.06-1.82,1-2.88-.01-1.04-.36-2.05-1-2.88-.5-.82-1.37-1.33-2.33-1.36l-.25-.04Z"/>
  <path class="cls-1" d="m253.05,42.81c.14-.31.21-.65.21-1,0-.9-.59-1.35-1.79-1.35-.84,0-1.65.25-2.34.73-.68.41-1.1,1.14-1.14,1.93,0,.58.19,1.14.55,1.6.46.57,1.03,1.03,1.68,1.36.76.42,1.47.77,2.12,1.06s1.57.65,2.74,1.09c1.17.44,2.06.77,2.64,1,2.2.84,4.12,2.27,5.57,4.13,1.24,1.6,1.91,3.57,1.92,5.6,0,2.86-1.33,5.34-4,7.44s-6.39,3.17-11.18,3.2h-.22c-1.87.02-3.74-.24-5.54-.76-1.7-.51-3.24-1.45-4.46-2.74-1.29-1.31-2-3.08-2-4.92v-.11c.06-1.51.63-2.96,1.61-4.12,1.02-1.33,2.41-2.32,4-2.85,1-.34,2.04-.5,3.1-.49,1.68-.01,3.34.33,4.89,1,1.36.54,2.48,1.55,3.15,2.86.25.53.38,1.1.38,1.68.02.78-.3,1.54-.87,2.07-.68.57-1.51.92-2.39,1h-.6c-.97.05-1.94-.2-2.77-.71-.65-.43-1-.89-1-1.36,0-.19.04-.39.11-.57.09-.24.19-.47.3-.7.13-.28.22-.48.3-.63.11-.28.18-.57.21-.87,0-.87-.52-1.3-1.57-1.3-.9.03-1.75.43-2.34,1.11-.77.87-1.15,2.02-1.08,3.18v.27c-.04,1.64.59,3.23,1.76,4.4,1,.97,2.29,1.58,3.67,1.74h.71c1.98.03,3.9-.71,5.35-2.07,1.42-1.18,2.26-2.91,2.29-4.76-.02-1.73-.74-3.37-2-4.56-1.41-1.11-3-1.97-4.7-2.56-2.26-.9-4.35-1.83-6.26-2.79-1.92-1-3.12-2-3.59-3.13-.26-.63-.41-1.31-.43-2,0-1.14.38-2.26,1.06-3.18.71-1,1.65-1.83,2.74-2.41,4.03-1.96,8.69-2.16,12.87-.55,1.53.58,2.78,1.72,3.52,3.18.26.57.41,1.18.43,1.8.01.87-.35,1.7-1,2.28-.72.64-1.63,1.04-2.6,1.14-.25.02-.51.02-.76,0-1.06.06-2.11-.23-3-.81-.6-.28-1.01-.86-1.09-1.52,0-.2.05-.39.14-.57.09-.2.2-.46.35-.76l.36-.71Z"/>
  <path class="cls-1" d="m147,49.96c-.72-.47-1.25-1.18-1.5-2-.12-.48-.12-.99,0-1.47-.67-.15-1.27-.5-1.74-1-.52-.65-.85-1.44-.94-2.27-2.05-.58-3.66-3.33-3-5.24-.58-.09-1.16-.15-1.74-.18h-1c-1.61,0-3.21.27-4.73.82-2.31.73-4.3,2.22-5.65,4.24-1.26,1.95-1.92,4.24-1.9,6.56v.33c.03,3.14,1.08,6.19,3,8.68,1.92,2.46,4.78,3.79,8.58,4h.87c1.63-.01,3.24-.29,4.78-.81,2.32-.73,4.32-2.22,5.68-4.24,1.23-1.86,1.89-4.03,1.92-6.25-.94-.23-1.84-.63-2.64-1.18Zm-5.55,2.52c.09,1.86-.21,3.72-.89,5.46-.6,1.25-1.35,1.87-2.26,1.87-1.19,0-2.31-1-3.34-3-1.15-2.49-1.75-5.19-1.77-7.92v-1.18c-.09-1.83.22-3.65.9-5.35.6-1.25,1.35-1.87,2.26-1.87,1.19,0,2.3,1,3.34,3,1.16,2.5,1.76,5.23,1.76,7.99v1Z"/>
  <path class="cls-1" d="m108.66,19.63c-.14-.27-.35-.5-.62-.65l-.21-.1c-.29-.13-.62-.16-.93-.1-.26.06-.42.16-.48.33-.01.07-.01.13,0,.2,0,.09,0,.18,0,.27v.25c.02.12.02.23,0,.35-.04.18-.23.3-.41.25-.04,0-.07-.02-.1-.04l-.12-.06c-.32-.29-.59-.63-.82-1-.13-.19-.28-.45-.46-.77l-4.49-8.99c-.15-.31-.4-.56-.71-.71-2.17-1.02-8.26-1.42-9.26-.33l-9.81,9.81-.11.1c-.2.16-.36.29-.51.39-.34.25-.71.45-1.11.59h-.13c-.19.03-.37-.1-.4-.29,0-.03,0-.06,0-.09,0-.12.04-.24.09-.35l.1-.22c.05-.08.08-.16.11-.24,0-.07,0-.14,0-.21-.02-.2-.15-.38-.33-.47-.26-.18-.58-.27-.9-.25h-.23c-.32.04-.61.19-.84.41-.34.34-.43.85-.22,1.28.18.38.47.69.83.9.37.2.78.31,1.2.31.13.01.26.01.39,0,.38-.06.75-.17,1.1-.33l.2-.13h0c.58-.35,1.32-.28,1.82.17l3.61,3.18c.64.56,1.61.5,2.17-.14.05-.06.1-.12.14-.18,1.93-3,7.68-3.28,9.25-.8.45.72,1.39.95,2.12.5,0,0,.01,0,.02-.01l4-2.58c.66-.41,1.52-.26,2,.35h0c.04.07.09.13.14.19.26.28.56.53.9.72.16.09.28.14.36.18.39.16.82.21,1.24.15.42-.06.81-.25,1.11-.54.13-.12.22-.26.29-.42.13-.28.14-.6.02-.88Z"/>
  <path class="cls-1" d="m95.54,21.79c-.49.83-.91,1.7-1.27,2.59-.89,2.48-5.95,17.07-15.16,43.78-.27,1.02-.88,1.91-1.73,2.53-.81.6-1.79.93-2.8.93-2.18,0-3.6-1.19-4.25-3.55-11.5-27.06-17.83-41.86-18.97-44.4-.4-.51-1.04-.78-1.68-.69-.16-.01-.33-.01-.49,0l-.4.05c-1.33.17-2,.79-2,1.86.03.64.18,1.27.44,1.86.12.3.3.7.54,1.2l.57,1.24c.14.29.21.61.22.93-.12,1.08-.79,2.02-1.77,2.49-1.47.93-3.18,1.41-4.92,1.37-.41,0-.83-.02-1.24-.09-1.58-.17-3.08-.84-4.26-1.91-1.03-.95-1.61-2.29-1.59-3.7.04-1.01.28-2.01.7-2.93.61-1.46,1.52-2.77,2.67-3.86,1.07-.98,2.36-1.69,3.77-2.08,1.21-.37,2.46-.62,3.72-.76,1-.08,2.41-.13,4.13-.13h14.53c.77,0,1.16.48,1.16,1.42v.36c-.13.37-.32.71-.58,1-.3.35-.47.78-.49,1.24-.01.39.05.79.18,1.16,1.12,2.6,3.19,7.53,6.2,14.8,3.02,7.27,5.32,12.79,6.91,16.58,5.58-16.45,9.06-26.68,10.46-30.69.28-.67.43-1.4.44-2.13v-.07c1.15-.87,2.56-1.32,4-1.28,1.05-.05,2.09.27,2.95.89Z"/>
  <path class="cls-1" d="m92.57,20.9c-1.44-.04-2.85.41-4,1.28v.07c0,.73-.16,1.45-.44,2.13-1.42,4-4.91,14.22-10.46,30.66-1.6-3.79-3.9-9.32-6.91-16.58-3.01-7.26-5.07-12.19-6.18-14.8-.13-.37-.19-.76-.18-1.16.02-.46.19-.89.49-1.24.26-.29.45-.63.58-1v-.29c0-.94-.39-1.42-1.16-1.42h-14.53c-1.72,0-3.09.05-4.13.13-1.26.14-2.5.39-3.72.76-1.4.39-2.69,1.1-3.77,2.08-1.14,1.09-2.05,2.4-2.67,3.86-.42.92-.66,1.92-.7,2.93,0,1.39.57,2.72,1.59,3.66,1.19,1.05,2.68,1.7,4.26,1.86.41.07.82.1,1.24.09,1.72.04,3.42-.42,4.88-1.33.98-.47,1.65-1.41,1.77-2.49,0-.32-.08-.64-.22-.93l-.57-1.2c-.24-.5-.42-.9-.54-1.2-.26-.59-.41-1.22-.44-1.86,0-1.07.67-1.69,2-1.86l.4-.05c.16-.01.33-.01.49,0,.65-.08,1.29.19,1.68.71,1.13,2.54,7.45,17.34,18.98,44.4.65,2.36,2.07,3.55,4.25,3.55,1.01,0,1.99-.33,2.8-.93.85-.62,1.46-1.51,1.73-2.53,9.23-26.74,14.29-41.35,15.19-43.83.36-.89.78-1.76,1.27-2.59-.86-.63-1.91-.94-2.97-.89Z"/>
</svg>